HIERARCHY
ROOT Hips
{
    OFFSET 0.000000 0.000000 0.000000
    CHANNELS 6 Xposition Yposition Zposition Zrotation Xrotation Yrotation
    JOINT Spine
    {
        OFFSET -0.000000 7.236184 0.000000
        CHANNELS 3 Zrotation Xrotation Yrotation
        JOINT Spine1
        {
            OFFSET -0.000000 20.420147 0.000000
            CHANNELS 3 Zrotation Xrotation Yrotation
            JOINT Neck
            {
                OFFSET -0.000000 20.336288 1.848754
                CHANNELS 3 Zrotation Xrotation Yrotation
                JOINT Head
                {
                    OFFSET -0.000000 12.354461 -1.764923
                    CHANNELS 3 Zrotation Xrotation Yrotation
                    End Site
                    {
                        OFFSET -0.000000 22.061537 0.000000
                    }
                }
            }
            JOINT LeftShoulder
            {
                OFFSET 3.573296 18.396038 -0.314103
                CHANNELS 3 Zrotation Xrotation Yrotation
                JOINT LeftArm
                {
                    OFFSET 10.880760 0.000000 0.000000
                    CHANNELS 3 Zrotation Xrotation Yrotation
                    JOINT LeftForeArm
                    {
                        OFFSET 27.185530 0.000000 0.000000
                        CHANNELS 3 Zrotation Xrotation Yrotation
                        JOINT LeftHand
                        {
                            OFFSET 27.825975 0.000000 0.000000
                            CHANNELS 3 Zrotation Xrotation Yrotation
                            End Site
                            {
                                OFFSET 13.236923 0.000000 0.000000
                            }
                        }
                    }
                }
            }
            JOINT RightShoulder
            {
                OFFSET -3.474926 18.396038 -0.314103
                CHANNELS 3 Zrotation Xrotation Yrotation
                JOINT RightArm
                {
                    OFFSET -10.880760 0.000000 0.000000
                    CHANNELS 3 Zrotation Xrotation Yrotation
                    JOINT RightForeArm
                    {
                        OFFSET -27.185530 0.000000 0.000000
                        CHANNELS 3 Zrotation Xrotation Yrotation
                        JOINT RightHand
                        {
                            OFFSET -27.825975 0.000000 0.000000
                            CHANNELS 3 Zrotation Xrotation Yrotation
                            End Site
                            {
                                OFFSET -13.236923 0.000000 0.000000
                            }
                        }
                    }
                }
            }
        }
    }
    JOINT LeftUpLeg
    {
        OFFSET 8.824615 0.000000 0.000000
        CHANNELS 3 Zrotation Xrotation Yrotation
        JOINT LeftLeg
        {
            OFFSET -0.000000 -35.111282 0.000000
            CHANNELS 3 Zrotation Xrotation Yrotation
            JOINT LeftFoot
            {
                OFFSET -0.000000 -42.324711 0.000000
                CHANNELS 3 Zrotation Xrotation Yrotation
                JOINT LeftToeBase
                {
                    OFFSET -0.000000 -5.735999 13.236923
                    CHANNELS 3 Zrotation Xrotation Yrotation
                    End Site
                    {
                        OFFSET -0.000000 0.000000 3.529846
                    }
                }
            }
        }
    }
    JOINT RightUpLeg
    {
        OFFSET -8.824615 0.000000 0.000000
        CHANNELS 3 Zrotation Xrotation Yrotation
        JOINT RightLeg
        {
            OFFSET -0.000000 -35.111282 0.000000
            CHANNELS 3 Zrotation Xrotation Yrotation
            JOINT RightFoot
            {
                OFFSET -0.000000 -42.324711 0.000000
                CHANNELS 3 Zrotation Xrotation Yrotation
                JOINT RightToeBase
                {
                    OFFSET -0.000000 -5.735999 13.236923
                    CHANNELS 3 Zrotation Xrotation Yrotation
                    End Site
                    {
                        OFFSET -0.000000 0.000000 3.529846
                    }
                }
            }
        }
    }
}
MOTION
Frames:    8
Frame Time:    0.008333
1.600720    80.176613    102.702927    -1.210092    -5.644454    -174.997665    -1.642371    -7.893075    0.682506    -1.412429    6.238880    0.872875    1.185042    -2.283324    -2.203852    4.056738    -15.841443    -1.370512    2.002691    18.870029    -3.514672    -46.323696    42.114151    -42.600834    1.906172    -9.554439    -16.160069    13.198879    -9.010328    2.425836    7.507510    22.078930    -6.033237    37.153065    43.221043    38.333580    -5.602667    -11.036382    19.877319    -15.055601    -9.649783    -3.230591    7.292898    -10.071724    0.110337    -1.930231    13.943244    -1.412632    -5.506369    -8.744877    -9.073720    -0.968274    -0.078980    1.073445    -12.340135    -0.034849    -3.996257    4.409863    2.117036    -1.426540    6.700277    -5.036508    -12.626700    -1.061921    0.293172    1.148084    
1.590289    80.172050    102.681419    -1.189161    -5.640874    -175.038498    -1.654713    -7.912641    0.687251    -1.380253    6.215610    0.876607    1.207725    -2.278724    -2.172566    4.045217    -15.741573    -1.348311    2.012999    18.855759    -3.505400    -46.273582    42.091537    -42.488075    1.920171    -9.441984    -16.231628    13.309665    -8.891868    2.428548    7.522749    22.102215    -6.056460    37.267220    43.211174    38.181522    -5.567698    -11.021297    19.760647    -15.051914    -9.646494    -3.230997    7.298753    -10.109481    0.124753    -1.907836    14.062638    -1.409432    -5.500145    -8.813758    -9.057182    -0.967491    -0.062305    1.072545    -12.312463    -0.039543    -4.034778    4.381929    2.155855    -1.386507    6.657142    -5.013806    -12.572351    -1.007955    0.214544    1.089858    
1.579370    80.167557    102.659920    -1.169614    -5.637790    -175.078430    -1.667576    -7.932622    0.692028    -1.348954    6.192288    0.880687    1.230076    -2.272753    -2.141865    4.034509    -15.643170    -1.326393    2.023066    18.841623    -3.495779    -46.223518    42.068954    -42.374767    1.933825    -9.329928    -16.301294    13.419537    -8.774018    2.429998    7.537690    22.126024    -6.079921    37.384617    43.199322    38.027977    -5.533079    -11.006253    19.646507    -15.047219    -9.643185    -3.230212    7.302637    -10.147266    0.138163    -1.885329    14.182405    -1.422600    -5.491383    -8.884769    -9.024219    -0.966725    -0.045220    1.071663    -12.286957    -0.043894    -4.073252    4.354856    2.192436    -1.349652    6.617447    -4.991877    -12.517219    -0.956849    0.140276    1.034704    
1.567740    80.163132    102.638100    -1.151058    -5.633839    -175.116745    -1.679701    -7.951833    0.697240    -1.319495    6.169018    0.885155    1.252442    -2.264151    -2.112017    4.024756    -15.547493    -1.304938    2.032681    18.827448    -3.485340    -46.173996    42.045719    -42.259819    1.946378    -9.217978    -16.367847    13.527685    -8.656603    2.430758    7.552673    22.150965    -6.104011    37.507378    43.184063    37.872185    -5.498391    -10.991158    19.537014    -15.040940    -9.639886    -3.227046    7.304903    -10.183463    0.150603    -1.862745    14.301997    -1.452157    -5.479991    -8.957478    -8.975569    -0.965737    -0.028856    1.070536    -12.263189    -0.045558    -4.110573    4.328768    2.224670    -1.318246    6.583590    -4.971116    -12.461332    -0.910440    0.072413    0.984611    
1.554973    80.158821    102.616051    -1.135000    -5.629819    -175.152969    -1.691897    -7.971128    0.702927    -1.292629    6.146038    0.890283    1.274649    -2.252213    -2.083343    4.016308    -15.455420    -1.284133    2.041556    18.813318    -3.473769    -46.125771    42.021236    -42.142620    1.957282    -9.106260    -16.430326    13.633060    -8.539841    2.430766    7.567465    22.177027    -6.128970    37.637253    43.165115    37.713612    -5.463972    -10.976047    19.433889    -15.032635    -9.636629    -3.220539    7.303503    -10.218345    0.160942    -1.840132    14.420183    -1.495055    -5.466167    -9.030785    -8.913589    -0.964502    -0.013098    1.069137    -12.243444    -0.045084    -4.146925    4.304589    2.252126    -1.293359    6.556377    -4.951724    -12.404589    -0.869876    0.013141    0.940819    
1.540439    80.154495    102.592918    -1.121217    -5.625265    -175.187958    -1.704272    -7.990930    0.709538    -1.267954    6.122795    0.896379    1.297357    -2.236010    -2.055095    4.008932    -15.364401    -1.263484    2.049601    18.798798    -3.460525    -46.078232    41.994015    -42.018494    1.966518    -8.991436    -16.490213    13.738024    -8.420326    2.430066    7.582091    22.205128    -6.155599    37.779816    43.141293    37.546783    -5.428582    -10.960157    19.335045    -15.022018    -9.633073    -3.210206    7.298040    -10.252244    0.169129    -1.817041    14.539794    -1.550117    -5.449583    -9.106285    -8.838731    -0.963005    0.002658    1.067447    -12.227604    -0.041718    -4.183044    4.281717    2.275430    -1.273633    6.535165    -4.933455    -12.346395    -0.833903    -0.039651    0.901978    
1.524460    80.150330    102.569618    -1.111005    -5.620437    -175.220169    -1.716460    -8.010800    0.716731    -1.247078    6.100887    0.903467    1.319268    -2.216399    -2.028516    4.003563    -15.278044    -1.243671    2.056124    18.784275    -3.445746    -46.034393    41.964390    -41.891476    1.973701    -8.878619    -16.544491    13.837092    -8.303456    2.428482    7.595918    22.234022    -6.183086    37.929089    43.113857    37.379017    -5.393990    -10.943955    19.245333    -15.009809    -9.628949    -3.197250    7.287766    -10.283419    0.174326    -1.794465    14.655049    -1.610722    -5.431349    -9.180011    -8.758008    -0.961129    0.017584    1.065340    -12.217463    -0.035658    -4.217356    4.261430    2.294161    -1.258721    6.520419    -4.917381    -12.290389    -0.804015    -0.083790    0.869703    
1.506187    80.146042    102.544678    -1.103286    -5.613922    -175.251404    -1.728168    -8.030802    0.725198    -1.229105    6.079354    0.911821    1.341354    -2.192174    -2.002123    4.000037    -15.191879    -1.223472    2.060995    18.768751    -3.428543    -45.993355    41.929981    -41.753220    1.979180    -8.762571    -16.596025    13.935012    -8.183792    2.425675    7.609532    22.264704    -6.213036    38.092686    43.082230    37.201683    -5.358740    -10.926513    19.160114    -14.995548    -9.623691    -3.182688    7.273011    -10.312059    0.176919    -1.771633    14.771429    -1.676562    -5.411055    -9.255308    -8.670702    -0.958778    0.032574    1.062704    -12.211739    -0.025330    -4.251016    4.242496    2.309603    -1.246892    6.510618    -4.902646    -12.234436    -0.778009    -0.122660    0.841617    
